<?xml version="1.0" encoding="utf-8"?>
<!-- Generator: Adobe Illustrator 26.5.0, SVG Export Plug-In . SVG Version: 6.00 Build 0)  -->
<svg version="1.1" id="Calque_1" xmlns="http://www.w3.org/2000/svg" xmlns:xlink="http://www.w3.org/1999/xlink" x="0px" y="0px"
	 viewBox="0 0 256 256" style="enable-background:new 0 0 256 256;" xml:space="preserve">
<style type="text/css">
	.st0{fill:#c4c4c4;}
</style>
<path class="st0" d="M128,3C58.9,3,3,58.9,3,128s55.9,125,125,125s125-55.9,125-125S197.1,3,128,3z M87.2,183.3
	c-10.5,0-19.3-2.2-27.2-6.6c-7.5-4.4-13.6-11-17.5-19.3c-3.9-8.3-6.1-18-6.1-29.4c0-11,2.2-21.1,6.1-29.4
	c3.9-8.8,10.1-15.4,17.5-20.2c7.5-3.9,16.2-6.6,26.3-6.6c7,0,13.6,0.9,18.9,3.1c5.7,2.2,11,5.3,16.2,9.6l-12.3,16.7
	c-3.5-2.6-7-4.4-10.1-5.7c-3.1-1.3-7-1.8-10.5-1.8c-14.9,0-22.4,11.4-22.4,34.6c0,11.8,1.8,20.2,5.7,25c3.9,5.3,9.2,7.5,16.7,7.5
	c3.5,0,7-0.4,10.1-1.8c3.1-1.3,6.6-3.1,11-5.7l12.3,17.5C111.8,179.3,100.4,183.3,87.2,183.3z M192,181.1
	c-4.4,13.6-11,23.7-20.2,31.1c-9.2,7.5-21.5,11.4-36.8,12.7l-3.1-20.2c10.1-1.3,17.5-3.5,22.4-7c1.8-1.3,5.3-5.3,5.3-5.3L123.2,75.8
	h30.3l21.1,87.3l22.4-87.3h29.4L192,181.1z"/>
</svg>
